<svg width="82" height="31" viewBox="0 0 82 31" fill="none" xmlns="http://www.w3.org/2000/svg"><path fill-rule="evenodd" clip-rule="evenodd" d="M81.458 12.0851c-.3666-1.1687-.8768-2.22617-1.5941-3.14846-.7174-.92228-1.5941-1.59015-2.6303-2.09105-.2949-.15901-.6536-.31803-.9565-.39753 0 0-.1116-.06361-.2152-.06361-.0478 0-.1036 0-.1594-.05566-.0398 0-.0956 0-.0956-.05565l-.7572-.15902c-.558-.09541-1.2753-.14311-2.1043-.09541-1.2274.05566-2.3114.31804-3.2679.76328-1.0362.50885-1.9129 1.22441-2.6303 2.0831-.7173.92228-1.2275 1.93201-1.5941 3.15641-.3507 1.1608-.5101 2.4807-.5101 3.8005 0 1.3755.1594 2.6476.5181 3.8164.3666 1.1687.9325 2.2262 1.5941 3.1008.5181.6122 1.076 1.1131 1.7535 1.5742.3029.2067.5579.3578.8768.5089h.0398s.0478 0 .0478.0477c.0342 0 .0501.0159.0648.0308.0127.0128.0246.0248.0468.0248.5181.2544 1.084.3976 1.6978.5089 1.7933.3498 3.3317.1033 3.3317.1033.8209-.1033 1.5941-.3578 2.3114-.6678 1.0761-.5089 1.9448-1.2165 2.6702-2.0831.7173-.8587 1.2274-1.9321 1.5941-3.1008.3507-1.1688.5101-2.4409.5101-3.8164 0-1.3675-.2072-2.6396-.5181-3.8164l-.0239.0318zm-12.0116 1.1132c.2072-.7951.4622-1.5663.8209-2.1786.3587-.6042.821-1.11306 1.3311-1.4629.5181-.35778 1.1318-.55655 1.7934-.55655.6695 0 1.2354.14311 1.7535.5009.5101.34983.9166.79505 1.2753 1.36755.3587.6122.6217 1.2721.821 2.0831.2152.811.3188 1.6299.3188 2.5442v.3021c0 .9144-.1036 1.8287-.2551 2.6397-.2072.8189-.4623 1.5265-.8209 2.1467-.3587.6043-.821 1.0575-1.3391 1.4152-.5101.3578-1.1159.5089-1.7934.5089-.6695 0-1.2753-.159-1.7933-.5089-.5181-.3577-.9804-.8109-1.3391-1.4311-.3666-.6043-.6217-1.3119-.8289-2.1308-.1993-.811-.2551-1.7253-.2551-2.6397.0558-.8745.1594-1.7809.3188-2.5919l-.0079-.0079zM58.1999 25.7127l-1.9927 2.2819-.2072.2067L56.2072 31h3.0767l3.236-3.6096V15.9095l-.0956-.8746-4.2244 2.1785v8.4993z" fill="#fff"/><path fill-rule="evenodd" clip-rule="evenodd" d="M32.2789 5.22177l-2.0132-2.21768L30 2.81535 30.2094 0l3.1003.0471846L36.6435 3.61749V15.2328l-.0966.6448-4.268-2.2019V5.22177zm28.571 3.12205c.7248.91224 1.2401 1.95818 1.6106 3.11418l.0161-.0315c.3623 1.1639.5234 2.4222.5234 3.7748 0 1.3605-.1611 2.6188-.5154 3.7748-.3704 1.156-.8858 2.2177-1.6105 3.067-.7248.8572-1.6106 1.5571-2.6977 2.0604-.7247.3067-1.5058.5583-2.3353.6606 0 0-1.5541.2438-3.366-.1023-.62-.1101-1.1918-.2516-1.7072-.5033-.0292 0-.0433-.0148-.0568-.0291-.0126-.0132-.0246-.0259-.0479-.0259 0-.0472-.0563-.0472-.0563-.0472h-.0403c-.3221-.1494-.5798-.2988-.8858-.5033-.6764-.4561-1.2482-.9516-1.7716-1.5571-.6684-.865-1.2401-1.911-1.6105-3.067-.3543-1.156-.5154-2.4143-.5154-3.7748 0-1.3054.153-2.6108.5073-3.759.3705-1.2111.8858-2.20982 1.6106-3.12206.7247-.84932 1.6105-1.55709 2.6574-2.06039.9663-.44039 2.0615-.69991 3.3016-.75496.8375-.04718 1.5622 0 2.1259.09437l.765.15728c0 .05505.0564.05505.0966.05505.0645.05505.1128.05505.1611.05505.1047 0 .2174.06291.2174.06291.306.07864.6684.23593.9663.39321 1.0469.49544 1.9327 1.15602 2.6574 2.06826zm-9.6471 2.06038c-.3624.6056-.6201 1.3684-.8214 2.1548l.0081.0078c-.2067.792-.2643 1.6759-.32 2.5307l-.0021.033c0 .9044.0483 1.8088.2576 2.6109.2094.81.4671 1.5099.8295 2.1076.3623.6134.8294 1.0617 1.3448 1.4155.5234.3461 1.1435.5034 1.8279.5034.6684 0 1.2965-.1495 1.8119-.5034.5154-.3538.9824-.8021 1.3367-1.3998.3624-.6134.6282-1.3133.8295-2.1233.161-.8021.2738-1.7065.2738-2.6109v-.2988c0-.9044-.1128-1.7144-.3221-2.5165-.2094-.8021-.4671-1.4549-.8295-2.0604-.3623-.56622-.7811-1.00661-1.2884-1.35263-.5234-.35388-1.0952-.49544-1.7716-.49544-.6845 0-1.2965.1966-1.8119.55049-.5234.34602-.9904.84932-1.3528 1.44698zM38.9627 5.53633h4.3484V25h-4.3484V5.53633z" fill="#fff"/><path fill-rule="evenodd" clip-rule="evenodd" d="M41.0067 1c-1.1003 0-1.9933.89813-1.9933 2.00474 0 1.16275.893 2.05286 1.9933 2.00475C42.107 5.00949 43 4.11136 43 3.00474 43 1.89813 42.107 1 41.0067 1zM14.926 9.17134c.7176.93016 1.2279 1.99676 1.5947 3.17546l.0159-.032c.3588 1.1868.5183 2.4698.5183 3.8491 0 1.3873-.1595 2.6703-.5103 3.8491-.3668 1.1788-.8771 2.2613-1.5947 3.1274-.7176.8741-1.5946 1.5877-2.671 2.101-.7176.3127-1.491.5693-2.31228.6736 0 0-1.53884.2485-3.33284-.1043-.61394-.1123-1.18004-.2566-1.69831-.5132-.04784 0-.04784 0-.09568-.0561 0-.0482-.05581-.0482-.05581-.0482h-.03987c-.31893-.1523-.57407-.3047-.87706-.5132-.66976-.4651-1.23586-.9703-1.75413-1.5877-.71759-.8821-1.227884-1.9005-1.594656-3.1274C.159466 18.7861 0 17.503 0 16.1158c0-1.3312.159466-2.6623.510291-3.8331.366772-1.2349.877059-2.2533 1.594659-3.18354.7176-.86604 1.59466-1.58775 2.63119-2.10097.95679-.44906 2.04116-.71369 3.26905-.76982.82922-.04811 1.54682 0 2.10491.09623l.7575.16038c0 .05613.0558.05613.0957.05613.0638.05613.1116.05613.1595.05613.1036 0 .2152.06416.2152.06416.303.08019.6618.24057.9568.40094 1.0366.5052 1.9136 1.17879 2.6312 2.109zm21.0575 3.17546c-.3668-1.1787-.8771-2.2453-1.5947-3.17546-.7176-.93021-1.5946-1.6038-2.6312-2.109-.295-.16037-.6538-.32075-.9567-.40094 0 0-.1117-.06416-.2153-.06416-.0479 0-.1037 0-.1595-.05613-.0478 0-.0957 0-.0957-.05613l-.7654-.16038c-.5581-.09623-1.2757-.14434-2.097-.09623-1.2279.05613-2.3122.32076-3.269.76982-1.0366.51322-1.9136 1.23493-2.6312 2.10097-.7176.93024-1.2279 1.94864-1.5947 3.18354-.3508 1.1708-.5103 2.5019-.5103 3.8331 0 1.3872.1595 2.6703.5183 3.8491.3668 1.1788.9249 2.2453 1.5946 3.1274.5183.6174 1.0764 1.1226 1.7542 1.5877.303.2085.9169.5132.9169.5132s.0478 0 .0478.0482c.0342 0 .0501.0161.0648.031.0128.013.0247.0251.0469.0251.5182.2566 1.0764.4009 1.6983.5132 1.794.3528 3.3328.1043 3.3328.1043.8213-.1043 1.5947-.3609 2.3123-.6736 1.0764-.5133 1.9455-1.2269 2.671-2.101.7176-.8661 1.2279-1.9486 1.5947-3.1274.3508-1.1788.5023-2.4618.5023-3.8491 0-1.3793-.1993-2.6623-.5103-3.8491l-.0239.032zm-12.0158 1.1227c.2073-.8019.4625-1.5797.8213-2.1972.3588-.6094.8212-1.1226 1.3315-1.47549.5183-.36085 1.1322-.56132 1.794-.56132.6698 0 1.2359.14434 1.7541.50519.5103.35282.917.80192 1.2758 1.37922.3588.6175.6139 1.2831.8212 2.101.2153.818.319 1.6439.319 2.5661v.3047c0 .9222-.1037 1.8444-.2552 2.6623-.2073.826-.4624 1.5397-.8212 2.1651-.3588.6095-.8213 1.0666-1.3396 1.4274-.5102.3609-1.1162.5132-1.7939.5132-.6698 0-1.2758-.1604-1.794-.5132-.5183-.3608-.9808-.8179-1.3396-1.4434-.3667-.6094-.6219-1.3231-.8292-2.1491-.1993-.8179-.2551-1.7401-.2551-2.6623.0558-.8821.1594-1.7962.3189-2.6142l-.008-.008zm-19.40697 0c.19933-.8019.45447-1.5797.81327-2.1972.3588-.6094.82125-1.1226 1.33952-1.47549.51029-.36085 1.11626-.56132 1.79399-.56132.66976 0 1.23586.14434 1.75409.50519.5024.35282.917.80192 1.2758 1.37922.3588.6175.6139 1.2831.8212 2.101.2073.818.3189 1.6439.3189 2.5661l-.0159.3047c0 .9222-.0957 1.8444-.2551 2.6623-.1994.826-.4625 1.5397-.8213 2.1651-.3508.6095-.8133 1.0666-1.3236 1.4274-.51026.3609-1.13217.5132-1.79396.5132-.67773 0-1.29167-.1604-1.80994-.5132-.51029-.3608-.97274-.8179-1.33154-1.4434-.31893-.5052-.55813-1.2189-.77341-2.0849-.2073-.826-.26312-1.7642-.26312-2.6784 0-.9222.05582-1.8443.25515-2.6623l.01595-.008z" fill="#fff"/></svg>