<svg width="170" height="64" viewBox="0 0 170 64" fill="none" xmlns="http://www.w3.org/2000/svg"><path fill-rule="evenodd" clip-rule="evenodd" d="M168.874 24.6571c-.761-2.431-1.821-4.6305-3.311-6.5489-1.489-1.9183-3.31-3.3075-5.462-4.3494-.613-.3307-1.358-.6615-1.987-.8268 0 0-.232-.1323-.447-.1323-.099 0-.215 0-.331-.1158-.083 0-.199 0-.199-.1158l-1.572-.3307c-1.159-.1985-2.649-.2977-4.371-.1985-2.549.1158-4.8.6615-6.787 1.5876-2.152 1.0584-3.973 2.5468-5.463 4.3329-1.49 1.9183-2.549 4.0186-3.311 6.5654-.728 2.4145-1.059 5.1597-1.059 7.905 0 2.861.331 5.507 1.076 7.938.761 2.431 1.937 4.6305 3.311 6.4497 1.076 1.2734 2.235 2.3152 3.642 3.2744.629.43 1.158.7442 1.821 1.0584h.082s.1 0 .1.0992c.071 0 .104.0333.134.0641.027.0268.051.0517.098.0517 1.076.5292 2.251.8269 3.526 1.0584 3.724.7276 6.919.215 6.919.215 1.705-.215 3.311-.7442 4.801-1.3892 2.235-1.0584 4.039-2.5302 5.546-4.3328 1.49-1.7861 2.549-4.0186 3.311-6.4497.728-2.431 1.059-5.077 1.059-7.938 0-2.8445-.43-5.4905-1.076-7.9381l-.05.0662zm-24.947 2.3153c.43-1.6538.96-3.2579 1.705-4.5313.745-1.2569 1.705-2.3153 2.765-3.043 1.076-.7441 2.35-1.1576 3.724-1.1576 1.391 0 2.566.2977 3.642 1.0419 1.06.7276 1.904 1.6537 2.649 2.8445.745 1.2733 1.291 2.646 1.705 4.3328.447 1.6868.662 3.3902.662 5.292v.6284c0 1.9019-.215 3.8037-.529 5.4905-.431 1.7034-.961 3.1752-1.706 4.4652-.744 1.2568-1.705 2.1995-2.781 2.9437-1.059.7442-2.317 1.0584-3.724 1.0584-1.391 0-2.649-.3308-3.725-1.0584-1.076-.7442-2.036-1.6869-2.781-2.9768-.762-1.2569-1.291-2.7287-1.722-4.4321-.414-1.6868-.53-3.5886-.53-5.4905.116-1.8191.332-3.7044.663-5.3912l-.017-.0165zm-23.358 26.0301l-4.139 4.7463-.43.43.43 5.8212h6.39l6.721-7.5081V32.6117l-.198-1.8192-8.774 4.5313v17.6787z" fill="#fff"/><path fill-rule="evenodd" clip-rule="evenodd" d="M66.6959 10.8613l-4.1483-4.61279L62 5.85593 62.4314 0l6.3885.0981441L75.6896 7.52438V31.6842l-.1991 1.3413-8.7946-4.5801V10.8613zm58.8741 6.4938c1.493 1.8975 2.555 4.073 3.318 6.4776l.033-.0655c.747 2.4209 1.079 5.0381 1.079 7.8515 0 2.8299-.332 5.447-1.062 7.8516-.763 2.4045-1.825 4.6127-3.319 6.3793-1.493 1.783-3.318 3.2388-5.558 4.2857-1.494.6379-3.103 1.1613-4.813 1.374 0 0-3.202.5071-6.936-.2127-1.277-.229-2.455-.5234-3.517-1.0468-.061 0-.09-.0309-.118-.0606-.025-.0275-.05-.0539-.098-.0539 0-.0982-.116-.0982-.116-.0982h-.083c-.664-.3108-1.195-.6216-1.826-1.0469-1.393-.9487-2.5716-1.9792-3.6501-3.2387-1.3773-1.7993-2.5554-3.9748-3.3187-6.3794-.7301-2.4045-1.062-5.0217-1.062-7.8515 0-2.7153.3153-5.4306 1.0454-7.8188.7633-2.519 1.8253-4.5964 3.3187-6.4939 1.4937-1.7666 3.3187-3.2387 5.4757-4.2856 1.991-.916 4.248-1.4558 6.803-1.5703 1.726-.0981 3.22 0 4.381.1963l1.576.3271c0 .1145.117.1145.2.1145.132.1145.232.1145.331.1145.216 0 .448.1309.448.1309.631.1636 1.378.4907 1.992.8179 2.157 1.0305 3.982 2.4045 5.476 4.3019zm-19.879 4.2857c-.747 1.2595-1.278 2.8461-1.693 4.4819l.017.0163c-.426 1.6473-.545 3.4859-.66 5.2639l-.004.0686c0 1.8811.099 3.7622.531 5.4307.431 1.6848.962 3.1406 1.709 4.3837.747 1.2759 1.709 2.2083 2.771 2.9444 1.079.7197 2.356 1.0468 3.767 1.0468 1.377 0 2.671-.3108 3.733-1.0468 1.062-.7361 2.025-1.6685 2.755-2.9116.747-1.2759 1.294-2.7317 1.709-4.4165.332-1.6685.564-3.5496.564-5.4307V30.85c0-1.8811-.232-3.5659-.664-5.2344-.431-1.6684-.962-3.0261-1.709-4.2856-.746-1.1778-1.609-2.0938-2.655-2.8135-1.078-.7361-2.256-1.0305-3.65-1.0305-1.411 0-2.672.4089-3.734 1.145-1.078.7197-2.041 1.7666-2.787 3.0098zM80.4685 11.5156h8.9605V52h-8.9605V11.5156z" fill="#fff"/><path fill-rule="evenodd" clip-rule="evenodd" d="M84.8743 2c-2.2774 0-4.1257 1.8681-4.1257 4.16987 0 2.41852 1.8483 4.26993 4.1257 4.16983C87.1517 10.3397 89 8.47163 89 6.16987 89 3.8681 87.1517 2 84.8743 2zM30.8934 18.9964c1.4852 1.9348 2.5414 4.1532 3.3006 6.605l.033-.0667c.7426 2.4686 1.0726 5.1373 1.0726 8.0062 0 2.8855-.33 5.5542-1.0561 8.0061-.7592 2.4519-1.8154 4.7036-3.3006 6.505-1.4853 1.8181-3.3006 3.3025-5.5285 4.37-1.4852.6505-3.086 1.1843-4.7858 1.4011 0 0-3.1851.5171-6.8982-.2168-1.2707-.2335-2.4424-.5338-3.5151-1.0675-.099 0-.099 0-.1981-.1168 0-.1-.11548-.1-.11548-.1h-.08251c-.66012-.317-1.18821-.6339-1.81532-1.0675-1.38624-.9674-2.55794-2.0182-3.63063-3.3026-1.48526-1.8347-2.54144-3.953-3.30057-6.505C.330057 38.9951 0 36.3263 0 33.4408c0-2.7688.330058-5.5376 1.05618-7.9728.75914-2.5686 1.81532-4.6869 3.30058-6.6217 1.48526-1.8014 3.30057-3.3026 5.44595-4.3701 1.98039-.934 4.22469-1.4844 6.76619-1.6012 1.7163-.1001 3.2015 0 4.3567.2002l1.5678.3336c0 .1167.1155.1167.1981.1167.132.1168.231.1168.33.1168.2145 0 .4456.1334.4456.1334.6271.1668 1.3697.5004 1.9803.834 2.1454 1.0508 3.9607 2.4519 5.446 4.3867zm43.5841 6.605c-.7592-2.4518-1.8153-4.6702-3.3006-6.605-1.4853-1.9348-3.3006-3.3359-5.446-4.3867-.6106-.3336-1.3532-.6672-1.9803-.834 0 0-.231-.1334-.4456-.1334-.099 0-.2145 0-.33-.1168-.0991 0-.1981 0-.1981-.1167l-1.5842-.3336c-1.1552-.2002-2.6405-.3003-4.3403-.2002-2.5414.1168-4.7858.6672-6.7662 1.6012-2.1454 1.0675-3.9607 2.5687-5.4459 4.3701-1.4853 1.9348-2.5415 4.0531-3.3006 6.6217-.7261 2.4352-1.0562 5.204-1.0562 7.9728 0 2.8855.3301 5.5543 1.0727 8.0061.7591 2.4519 1.9143 4.6703 3.3006 6.505 1.0727 1.2844 2.2279 2.3352 3.6306 3.3026.6271.4336 1.8978 1.0675 1.8978 1.0675s.0991 0 .0991.1c.0707 0 .1035.0336.134.0647.0264.0269.051.0521.097.0521 1.0727.5337 2.2279.834 3.5151 1.0675 3.7132.7339 6.8982.2168 6.8982.2168 1.6998-.2168 3.3006-.7506 4.7858-1.4011 2.2279-1.0675 4.0267-2.5519 5.5285-4.37 1.4853-1.8014 2.5415-4.0531 3.3006-6.505.7261-2.4519 1.0397-5.1206 1.0397-8.0061 0-2.8689-.4126-5.5376-1.0562-8.0062l-.0495.0667zm-24.8699 2.3352c.4291-1.668.9572-3.2859 1.6998-4.5702.7427-1.2676 1.6998-2.3351 2.756-3.069 1.0727-.7506 2.3434-1.1676 3.7132-1.1676 1.3862 0 2.5579.3002 3.6306 1.0508 1.0562.7339 1.8978 1.668 2.6405 2.8689.7426 1.2843 1.2707 2.6687 1.6998 4.37.4455 1.7013.6601 3.4193.6601 5.3374v.6339c0 1.9181-.2146 3.8362-.5281 5.5375-.4291 1.718-.9572 3.2025-1.6998 4.5035-.7427 1.2676-1.6998 2.2184-2.7725 2.9689-1.0562.7506-2.3104 1.0675-3.7132 1.0675-1.3862 0-2.6404-.3336-3.7131-1.0675-1.0727-.7505-2.0299-1.7013-2.7725-3.0023-.7591-1.2676-1.2872-2.7521-1.7163-4.4701-.4126-1.7013-.5281-3.6194-.5281-5.5375.1155-1.8348.3301-3.7362.6601-5.4375l-.0165-.0167zm-40.16796 0c.41258-1.668.94066-3.2859 1.68326-4.5702.7427-1.2676 1.6998-2.3351 2.7725-3.069 1.0562-.7506 2.3104-1.1676 3.7132-1.1676 1.3862 0 2.5579.3002 3.6306 1.0508 1.0397.7339 1.8978 1.668 2.6405 2.8689.7426 1.2843 1.2707 2.6687 1.6998 4.37.429 1.7013.6601 3.4193.6601 5.3374l-.033.6339c0 1.9181-.1981 3.8362-.5281 5.5375-.4126 1.718-.9572 3.2025-1.6998 4.5035-.7261 1.2676-1.6833 2.2184-2.7395 2.9689-1.0562.7506-2.3434 1.0675-3.7131 1.0675-1.4028 0-2.6735-.3336-3.7462-1.0675-1.0562-.7505-2.0133-1.7013-2.756-3.0023-.6601-1.0508-1.15518-2.5352-1.60076-4.3366-.42907-1.718-.54459-3.6695-.54459-5.571 0-1.9181.11552-3.8362.52809-5.5375l.033-.0167z" fill="#fff"/></svg>